<svg xmlns="http://www.w3.org/2000/svg" viewBox="0 0 128 128"><rect width="128" height="128" fill="none"/><g transform="translate(4,6)"><path d="M72 32c6 0 12-8 16-8 2 0 4 3 4 6s-2 6-2 8 2 4 2 6-2 4-4 4-8-4-12-4-6 2-8 4-4 4-4 8 2 10 6 14 6 10 6 14-2 8-10 12-18 4-26 0-12-10-12-18 4-14 8-18 10-8 14-12 6-10 6-16c0-4-4-8-8-8-6 0-10 6-14 6s-8-4-8-8 4-6 8-6 6 2 10 2 10-4 18-4 12 6 12 12z" fill="#0A0A0A"/><circle cx="70" cy="42" r="3" fill="#f5f5f5"/><circle cx="82" cy="42" r="3" fill="#f5f5f5"/></g></svg>